:SAMPLES-PER-SECOND 30
:FULLY-SPECIFIED
:DEGREES
317
root  -8.06154 38.9548 16.4213 -178.486 38.1055 176.641
RightUpLeg  -14.9269 -5.64383 -10.8161
RightLeg  23.8425 -8.4033 -4.27509
RightFoot  -6.42322 -0.818848 17.9121
RightToes  -1.39699e-009 0 -3.6325e-017
Spine  13.318 -0.863346 -5.1955
Spine1  19.2619 -2.43017 2.64197
HEad  -19.7448 31.268 -15.9058
LeftShoulder1  1.21048 -1.67497 -16.6619
LeftArm  15.4468 14.668 -62.3268
LeftForeArm  109.517 -79.1672 -110.765
LeftHand  -3.05506 -5.63525 31.7021
RightShoulder  0.54114 -0.65181 11.9715
RightArm  8.04365 -12.8749 61.3247
RightForeArm  159.528 61.0605 161.107
RightHand  -1.24711 5.31011 -13.7666
LeftUpLeg  -11.9405 -6.07991 6.77293
LeftLeg  30.5536 -2.74763 -1.40766
LeftFoot  -9.74215 0.303541 -17.524
LeftToes  3.40148e-010 1.80944e-010 1.01921e-010
318
root  -8.54555 39.1391 16.1785 -177.957 38.747 176.371
RightUpLeg  -14.9858 -6.39072 -11.8409
RightLeg  21.4526 -7.33034 -3.39643
RightFoot  -4.19474 -1.19759 18.5752
RightToes  -1.39699e-009 0 -3.6325e-017
Spine  12.7046 -0.888951 -5.54728
Spine1  18.6567 -2.55816 2.83073
HEad  -19.5647 31.3745 -16.2591
LeftShoulder1  1.1487 -1.61613 -15.6377
LeftArm  16.4295 14.1477 -62.3214
LeftForeArm  112.887 -78.9074 -114.137
LeftHand  -3.01754 -5.70469 31.15
RightShoulder  0.538695 -0.590314 11.4222
RightArm  9.01797 -14.2552 60.7137
RightForeArm  159.591 60.614 161.435
RightHand  -1.18012 5.1997 -13.1802
LeftUpLeg  -10.4545 -6.14796 5.32723
LeftLeg  28.2558 -2.56292 -1.15739
LeftFoot  -10.2752 0.211901 -15.8554
LeftToes  3.40148e-010 1.80944e-010 1.01921e-010
319
root  -9.047 39.1109 15.9318 -177.76 39.8033 176.288
RightUpLeg  -15.7697 -7.41447 -12.7209
RightLeg  21.2417 -5.44039 -2.53607
RightFoot  -3.46909 -1.35269 19.1541
RightToes  -1.39699e-009 0 -3.6325e-017
Spine  12.2669 -0.774393 -5.92971
Spine1  18.1547 -2.46441 2.67779
HEad  -19.1271 31.5761 -16.184
LeftShoulder1  1.07754 -1.45423 -14.8683
LeftArm  17.041 13.0437 -62.0085
LeftForeArm  114.652 -78.6531 -116.577
LeftHand  -2.9162 -5.58438 30.4689
RightShoulder  0.546171 -0.458135 10.7397
RightArm  9.92525 -14.6254 59.7353
RightForeArm  159.715 60.4758 161.545
RightHand  -1.13521 5.15418 -12.7465
LeftUpLeg  -8.96173 -6.07699 4.13654
LeftLeg  25.9838 -1.60504 -0.513892
LeftFoot  -12.5818 -0.0766921 -14.0306
LeftToes  3.40148e-010 1.80944e-010 1.01921e-010
320
root  -9.56268 38.8388 15.733 -178.464 40.7938 175.834
RightUpLeg  -17.5441 -8.48754 -13.9466
RightLeg  24.2019 -3.40585 -1.88411
RightFoot  -3.87095 -1.33049 19.7928
RightToes  -1.39699e-009 0 -3.6325e-017
Spine  12.4699 -0.598915 -6.9952
Spine1  17.6983 -2.48818 2.65054
HEad  -18.6344 31.8675 -15.944
LeftShoulder1  1.01246 -1.23755 -14.4543
LeftArm  16.9883 11.3281 -61.0994
LeftForeArm  114.95 -78.5164 -117.592
LeftHand  -2.75536 -5.39591 29.3553
RightShoulder  0.548864 -0.360295 10.2609
RightArm  10.6411 -13.8376 58.7638
RightForeArm  158.963 60.7708 161.263
RightHand  -1.12698 5.12404 -12.6912
LeftUpLeg  -8.01855 -5.46747 2.6938
LeftLeg  25.3842 -0.564026 0.0556819
LeftFoot  -16.0026 -0.416629 -12.5632
LeftToes  3.40148e-010 1.80944e-010 1.01921e-010
321
root  -10.0529 38.36 15.6205 179.674 41.4388 174.784
RightUpLeg  -19.886 -8.76262 -15.7119
RightLeg  29.8076 -2.36112 -1.70582
RightFoot  -4.37468 -1.27563 20.261
RightToes  -1.39699e-009 0 -3.6325e-017
Spine  13.2775 -0.278184 -8.91578
Spine1  17.7414 -2.68853 3.12623
HEad  -18.6734 32.0563 -15.9537
LeftShoulder1  1.02432 -1.30876 -14.3776
LeftArm  16.1651 8.78027 -59.3683
LeftForeArm  112.004 -78.6971 -115.324
LeftHand  -2.67588 -5.28317 28.8374
RightShoulder  0.538663 -0.432739 10.3564
RightArm  10.8729 -12.1992 58.2602
RightForeArm  158.032 61.4907 160.643
RightHand  -1.13382 5.12749 -12.7617
LeftUpLeg  -7.758 -4.44236 0.93693
LeftLeg  27.4376 -0.244979 0.211329
LeftFoot  -19.7808 -0.713547 -11.2441
LeftToes  3.40148e-010 1.80944e-010 1.01921e-010
322
root  -10.4547 37.8693 15.574 177.438 41.7766 173.702
RightUpLeg  -21.8052 -8.22413 -17.3799
RightLeg  35.3445 -2.43166 -2.1123
RightFoot  -4.34749 -1.28412 20.325
RightToes  -1.39699e-009 0 -3.6325e-017
Spine  14.0971 0.179708 -10.8414
Spine1  18.6288 -2.85023 3.72744
HEad  -19.5026 32.0141 -16.3198
LeftShoulder1  1.16672 -1.90986 -14.6667
LeftArm  14.8759 5.49996 -56.7363
LeftForeArm  104.024 -79.1614 -108.422
LeftHand  -2.73739 -5.14699 29.8239
RightShoulder  0.524628 -0.60745 11.0048
RightArm  10.4046 -10.6811 58.555
RightForeArm  158.023 62.4141 159.924
RightHand  -1.14731 5.22881 -12.7916
LeftUpLeg  -7.74166 -3.2252 -0.462794
LeftLeg  30.6217 -0.797965 -0.153186
LeftFoot  -22.7906 -0.895186 -10.2542
LeftToes  3.40148e-010 1.80944e-010 1.01921e-010
